<?xml version="1.0" standalone="no"?><svg xmlns:xlink="http://www.w3.org/1999/xlink" xmlns="http://www.w3.org/2000/svg" viewBox="0 0 1000 583.3279608020115" preserveAspectRatio="xMaxYMax slice"><g transform="scale(1.2894075172458257)"><rect x="0" y="0" width="840.1714285714285" height="517.0285714285714" fill="#ffffff"/><circle cx="32.315" cy="32.315" r="16.155" fill="#689e8f"/><rect x="80.78571428571428" y="16.157142857142855" width="32.31428571428571" height="32.31428571428571" fill="#ffffff"/><circle cx="88.87" cy="24.240000000000002" r="8.08" fill="#7aaa9c"/><circle cx="105.02" cy="24.240000000000002" r="8.08" fill="#c9dcd7"/><circle cx="88.87" cy="40.39" r="8.08" fill="#0f654d"/><circle cx="105.02" cy="40.39" r="8.08" fill="#f8fbfa"/><rect x="145.41428571428568" y="16.157142857142855" width="32.31428571428571" height="32.31428571428571" fill="#ffffff"/><circle cx="153.49" cy="24.240000000000002" r="8.08" fill="#a2c3ba"/><circle cx="169.65" cy="24.240000000000002" r="8.08" fill="#fbfcfc"/><circle cx="153.49" cy="40.39" r="8.08" fill="#6ba091"/><circle cx="169.65" cy="40.39" r="8.08" fill="#0f654d"/><circle cx="226.195" cy="32.315" r="16.155" fill="#f7faf9"/><circle cx="290.82500000000005" cy="32.315" r="16.155" fill="#2e7964"/><circle cx="355.45500000000004" cy="32.315" r="16.155" fill="#307a65"/><rect x="403.92857142857133" y="16.157142857142855" width="32.31428571428571" height="32.31428571428571" fill="#ffffff"/><circle cx="412.01" cy="24.240000000000002" r="8.08" fill="#ebf2f0"/><circle cx="428.16999999999996" cy="24.240000000000002" r="8.08" fill="#cedfda"/><circle cx="412.01" cy="40.39" r="8.08" fill="#e9f1ef"/><circle cx="428.16999999999996" cy="40.39" r="8.08" fill="#a9c8bf"/><circle cx="484.71500000000003" cy="32.315" r="16.155" fill="#438673"/><circle cx="549.345" cy="32.315" r="16.155" fill="#a5c5bc"/><rect x="597.8142857142856" y="16.157142857142855" width="32.31428571428571" height="32.31428571428571" fill="#ffffff"/><circle cx="605.89" cy="24.240000000000002" r="8.08" fill="#a1c3b9"/><circle cx="622.0500000000001" cy="24.240000000000002" r="8.08" fill="#1c6d57"/><circle cx="605.89" cy="40.39" r="8.08" fill="#94baaf"/><circle cx="622.0500000000001" cy="40.39" r="8.08" fill="#2d7863"/><circle cx="678.595" cy="32.315" r="16.155" fill="#bed5ce"/><rect x="727.0714285714284" y="16.157142857142855" width="32.31428571428571" height="32.31428571428571" fill="#ffffff"/><circle cx="735.1500000000001" cy="24.240000000000002" r="8.08" fill="#dde9e6"/><circle cx="751.3100000000001" cy="24.240000000000002" r="8.08" fill="#d2e2de"/><circle cx="735.1500000000001" cy="40.39" r="8.08" fill="#e9f1ef"/><circle cx="751.3100000000001" cy="40.39" r="8.08" fill="#f0f5f4"/><circle cx="807.855" cy="32.315" r="16.155" fill="#eff5f3"/><circle cx="32.315" cy="96.94500000000001" r="16.155" fill="#b8d1ca"/><circle cx="96.94500000000001" cy="96.94500000000001" r="16.155" fill="#d6e5e0"/><rect x="145.41428571428568" y="80.78571428571428" width="32.31428571428571" height="32.31428571428571" fill="#ffffff"/><circle cx="153.49" cy="88.87" r="8.08" fill="#669d8d"/><circle cx="169.65" cy="88.87" r="8.08" fill="#a0c2b9"/><circle cx="153.49" cy="105.02" r="8.08" fill="#0d634b"/><circle cx="169.65" cy="105.02" r="8.08" fill="#518f7d"/><circle cx="226.195" cy="96.94500000000001" r="16.155" fill="#c6dbd5"/><circle cx="290.82500000000005" cy="96.94500000000001" r="16.155" fill="#cee0db"/><rect x="339.29999999999995" y="80.78571428571428" width="32.31428571428571" height="32.31428571428571" fill="#ffffff"/><circle cx="347.38" cy="88.87" r="8.08" fill="#11664e"/><circle cx="363.53999999999996" cy="88.87" r="8.08" fill="#1d6e57"/><circle cx="347.38" cy="105.02" r="8.08" fill="#edf3f2"/><circle cx="363.53999999999996" cy="105.02" r="8.08" fill="#b5cfc8"/><rect x="403.92857142857133" y="80.78571428571428" width="32.31428571428571" height="32.31428571428571" fill="#ffffff"/><circle cx="412.01" cy="88.87" r="8.08" fill="#6da193"/><circle cx="428.16999999999996" cy="88.87" r="8.08" fill="#25735d"/><circle cx="412.01" cy="105.02" r="8.08" fill="#27745e"/><circle cx="428.16999999999996" cy="105.02" r="8.08" fill="#a1c3b9"/><rect x="468.55714285714276" y="80.78571428571428" width="32.31428571428571" height="32.31428571428571" fill="#ffffff"/><circle cx="476.64" cy="88.87" r="8.08" fill="#c8dbd6"/><circle cx="492.78999999999996" cy="88.87" r="8.08" fill="#edf4f2"/><circle cx="476.64" cy="105.02" r="8.08" fill="#dde9e6"/><circle cx="492.78999999999996" cy="105.02" r="8.08" fill="#7aaa9d"/><circle cx="549.345" cy="96.94500000000001" r="16.155" fill="#a5c5bc"/><rect x="597.8142857142856" y="80.78571428571428" width="32.31428571428571" height="32.31428571428571" fill="#ffffff"/><circle cx="605.89" cy="88.87" r="8.08" fill="#c3d9d2"/><circle cx="622.0500000000001" cy="88.87" r="8.08" fill="#549180"/><circle cx="605.89" cy="105.02" r="8.08" fill="#c1d7d1"/><circle cx="622.0500000000001" cy="105.02" r="8.08" fill="#75a699"/><circle cx="678.595" cy="96.94500000000001" r="16.155" fill="#699f90"/><circle cx="743.225" cy="96.94500000000001" r="16.155" fill="#26735e"/><circle cx="807.855" cy="96.94500000000001" r="16.155" fill="#bcd4cd"/><circle cx="32.315" cy="161.565" r="16.155" fill="#52907f"/><circle cx="96.94500000000001" cy="161.565" r="16.155" fill="#b4cfc7"/><rect x="145.41428571428568" y="145.41428571428568" width="32.31428571428571" height="32.31428571428571" fill="#ffffff"/><circle cx="153.49" cy="153.49" r="8.08" fill="#408471"/><circle cx="169.65" cy="153.49" r="8.08" fill="#b6d0c9"/><circle cx="153.49" cy="169.65" r="8.08" fill="#f6faf9"/><circle cx="169.65" cy="169.65" r="8.08" fill="#a0c2b9"/><rect x="210.0428571428571" y="145.41428571428568" width="32.31428571428571" height="32.31428571428571" fill="#ffffff"/><circle cx="218.12" cy="153.49" r="8.08" fill="#d4e3df"/><circle cx="234.28" cy="153.49" r="8.08" fill="#dde9e6"/><circle cx="218.12" cy="169.65" r="8.08" fill="#4c8c7a"/><circle cx="234.28" cy="169.65" r="8.08" fill="#a3c4bb"/><rect x="274.6714285714285" y="145.41428571428568" width="32.31428571428571" height="32.31428571428571" fill="#ffffff"/><circle cx="282.75" cy="153.49" r="8.08" fill="#5e9887"/><circle cx="298.90999999999997" cy="153.49" r="8.08" fill="#cddfda"/><circle cx="282.75" cy="169.65" r="8.08" fill="#26745e"/><circle cx="298.90999999999997" cy="169.65" r="8.08" fill="#b1cdc5"/><circle cx="355.45500000000004" cy="161.565" r="16.155" fill="#5b9685"/><circle cx="420.08500000000004" cy="161.565" r="16.155" fill="#23715b"/><rect x="468.55714285714276" y="145.41428571428568" width="32.31428571428571" height="32.31428571428571" fill="#ffffff"/><circle cx="476.64" cy="153.49" r="8.08" fill="#086047"/><circle cx="492.78999999999996" cy="153.49" r="8.08" fill="#d8e6e2"/><circle cx="476.64" cy="169.65" r="8.08" fill="#b5d0c8"/><circle cx="492.78999999999996" cy="169.65" r="8.08" fill="#26745e"/><rect x="533.1857142857142" y="145.41428571428568" width="32.31428571428571" height="32.31428571428571" fill="#ffffff"/><circle cx="541.2700000000001" cy="153.49" r="8.08" fill="#3c816e"/><circle cx="557.4200000000001" cy="153.49" r="8.08" fill="#659c8d"/><circle cx="541.2700000000001" cy="169.65" r="8.08" fill="#87b2a6"/><circle cx="557.4200000000001" cy="169.65" r="8.08" fill="#b7d0c9"/><circle cx="613.9649999999999" cy="161.565" r="16.155" fill="#dae7e4"/><circle cx="678.595" cy="161.565" r="16.155" fill="#eaf1ef"/><circle cx="743.225" cy="161.565" r="16.155" fill="#6ca092"/><circle cx="807.855" cy="161.565" r="16.155" fill="#eef4f2"/><circle cx="32.315" cy="226.195" r="16.155" fill="#b2cdc5"/><rect x="80.78571428571428" y="210.0428571428571" width="32.31428571428571" height="32.31428571428571" fill="#ffffff"/><circle cx="88.87" cy="218.12" r="8.08" fill="#87b2a6"/><circle cx="105.02" cy="218.12" r="8.08" fill="#559281"/><circle cx="88.87" cy="234.28" r="8.08" fill="#d7e5e1"/><circle cx="105.02" cy="234.28" r="8.08" fill="#dfeae7"/><rect x="145.41428571428568" y="210.0428571428571" width="32.31428571428571" height="32.31428571428571" fill="#ffffff"/><circle cx="153.49" cy="218.12" r="8.08" fill="#82afa2"/><circle cx="169.65" cy="218.12" r="8.08" fill="#e8f0ee"/><circle cx="153.49" cy="234.28" r="8.08" fill="#f7faf9"/><circle cx="169.65" cy="234.28" r="8.08" fill="#a8c7be"/><rect x="210.0428571428571" y="210.0428571428571" width="32.31428571428571" height="32.31428571428571" fill="#ffffff"/><circle cx="218.12" cy="218.12" r="8.08" fill="#3f8470"/><circle cx="234.28" cy="218.12" r="8.08" fill="#e9f1ee"/><circle cx="218.12" cy="234.28" r="8.08" fill="#5d9787"/><circle cx="234.28" cy="234.28" r="8.08" fill="#589483"/><circle cx="290.82500000000005" cy="226.195" r="16.155" fill="#cddfda"/><rect x="339.29999999999995" y="210.0428571428571" width="32.31428571428571" height="32.31428571428571" fill="#ffffff"/><circle cx="347.38" cy="218.12" r="8.08" fill="#21705a"/><circle cx="363.53999999999996" cy="218.12" r="8.08" fill="#96bbb1"/><circle cx="347.38" cy="234.28" r="8.08" fill="#b7d1c9"/><circle cx="363.53999999999996" cy="234.28" r="8.08" fill="#8cb5aa"/><circle cx="420.08500000000004" cy="226.195" r="16.155" fill="#428572"/><rect x="468.55714285714276" y="210.0428571428571" width="32.31428571428571" height="32.31428571428571" fill="#ffffff"/><circle cx="476.64" cy="218.12" r="8.08" fill="#e8f0ee"/><circle cx="492.78999999999996" cy="218.12" r="8.08" fill="#086047"/><circle cx="476.64" cy="234.28" r="8.08" fill="#f7faf9"/><circle cx="492.78999999999996" cy="234.28" r="8.08" fill="#eaf1ef"/><circle cx="549.345" cy="226.195" r="16.155" fill="#096148"/><rect x="597.8142857142856" y="210.0428571428571" width="32.31428571428571" height="32.31428571428571" fill="#ffffff"/><circle cx="605.89" cy="218.12" r="8.08" fill="#b3cec7"/><circle cx="622.0500000000001" cy="218.12" r="8.08" fill="#589483"/><circle cx="605.89" cy="234.28" r="8.08" fill="#c7dbd5"/><circle cx="622.0500000000001" cy="234.28" r="8.08" fill="#6ca092"/><circle cx="678.595" cy="226.195" r="16.155" fill="#2e7964"/><rect x="727.0714285714284" y="210.0428571428571" width="32.31428571428571" height="32.31428571428571" fill="#ffffff"/><circle cx="735.1500000000001" cy="218.12" r="8.08" fill="#1e6e58"/><circle cx="751.3100000000001" cy="218.12" r="8.08" fill="#88b3a7"/><circle cx="735.1500000000001" cy="234.28" r="8.08" fill="#cddfda"/><circle cx="751.3100000000001" cy="234.28" r="8.08" fill="#eff5f3"/><circle cx="807.855" cy="226.195" r="16.155" fill="#11664e"/><circle cx="32.315" cy="290.82500000000005" r="16.155" fill="#4a8b79"/><circle cx="96.94500000000001" cy="290.82500000000005" r="16.155" fill="#1c6d56"/><circle cx="161.565" cy="290.82500000000005" r="16.155" fill="#d2e2dd"/><rect x="210.0428571428571" y="274.6714285714285" width="32.31428571428571" height="32.31428571428571" fill="#ffffff"/><circle cx="218.12" cy="282.75" r="8.08" fill="#2d7863"/><circle cx="234.28" cy="282.75" r="8.08" fill="#4b8c7a"/><circle cx="218.12" cy="298.90999999999997" r="8.08" fill="#e3edea"/><circle cx="234.28" cy="298.90999999999997" r="8.08" fill="#cedfda"/><rect x="274.6714285714285" y="274.6714285714285" width="32.31428571428571" height="32.31428571428571" fill="#ffffff"/><circle cx="282.75" cy="282.75" r="8.08" fill="#80aea1"/><circle cx="298.90999999999997" cy="282.75" r="8.08" fill="#5b9685"/><circle cx="282.75" cy="298.90999999999997" r="8.08" fill="#cfe0db"/><circle cx="298.90999999999997" cy="298.90999999999997" r="8.08" fill="#1f6f59"/><circle cx="355.45500000000004" cy="290.82500000000005" r="16.155" fill="#f1f6f5"/><rect x="403.92857142857133" y="274.6714285714285" width="32.31428571428571" height="32.31428571428571" fill="#ffffff"/><circle cx="412.01" cy="282.75" r="8.08" fill="#bdd5ce"/><circle cx="428.16999999999996" cy="282.75" r="8.08" fill="#dae7e4"/><circle cx="412.01" cy="298.90999999999997" r="8.08" fill="#c6dad4"/><circle cx="428.16999999999996" cy="298.90999999999997" r="8.08" fill="#f0f5f4"/><rect x="468.55714285714276" y="274.6714285714285" width="32.31428571428571" height="32.31428571428571" fill="#ffffff"/><circle cx="476.64" cy="282.75" r="8.08" fill="#26735e"/><circle cx="492.78999999999996" cy="282.75" r="8.08" fill="#70a395"/><circle cx="476.64" cy="298.90999999999997" r="8.08" fill="#22715b"/><circle cx="492.78999999999996" cy="298.90999999999997" r="8.08" fill="#0d634b"/><rect x="533.1857142857142" y="274.6714285714285" width="32.31428571428571" height="32.31428571428571" fill="#ffffff"/><circle cx="541.2700000000001" cy="282.75" r="8.08" fill="#9bbfb5"/><circle cx="557.4200000000001" cy="282.75" r="8.08" fill="#367e6a"/><circle cx="541.2700000000001" cy="298.90999999999997" r="8.08" fill="#afcbc3"/><circle cx="557.4200000000001" cy="298.90999999999997" r="8.08" fill="#498a78"/><circle cx="613.9649999999999" cy="290.82500000000005" r="16.155" fill="#307a65"/><rect x="662.4428571428571" y="274.6714285714285" width="32.31428571428571" height="32.31428571428571" fill="#ffffff"/><circle cx="670.5200000000001" cy="282.75" r="8.08" fill="#a2c3ba"/><circle cx="686.6800000000001" cy="282.75" r="8.08" fill="#dbe8e4"/><circle cx="670.5200000000001" cy="298.90999999999997" r="8.08" fill="#bfd6d0"/><circle cx="686.6800000000001" cy="298.90999999999997" r="8.08" fill="#c2d8d2"/><circle cx="743.225" cy="290.82500000000005" r="16.155" fill="#438673"/><rect x="791.6999999999998" y="274.6714285714285" width="32.31428571428571" height="32.31428571428571" fill="#ffffff"/><circle cx="799.7800000000001" cy="282.75" r="8.08" fill="#6da193"/><circle cx="815.94" cy="282.75" r="8.08" fill="#accac2"/><circle cx="799.7800000000001" cy="298.90999999999997" r="8.08" fill="#82afa2"/><circle cx="815.94" cy="298.90999999999997" r="8.08" fill="#076047"/><circle cx="32.315" cy="355.45500000000004" r="16.155" fill="#458775"/><circle cx="96.94500000000001" cy="355.45500000000004" r="16.155" fill="#0e644c"/><rect x="145.41428571428568" y="339.29999999999995" width="32.31428571428571" height="32.31428571428571" fill="#ffffff"/><circle cx="153.49" cy="347.38" r="8.08" fill="#5b9685"/><circle cx="169.65" cy="347.38" r="8.08" fill="#a9c8bf"/><circle cx="153.49" cy="363.53999999999996" r="8.08" fill="#e6efec"/><circle cx="169.65" cy="363.53999999999996" r="8.08" fill="#c4d9d3"/><circle cx="226.195" cy="355.45500000000004" r="16.155" fill="#9abeb4"/><circle cx="290.82500000000005" cy="355.45500000000004" r="16.155" fill="#77a89a"/><rect x="339.29999999999995" y="339.29999999999995" width="32.31428571428571" height="32.31428571428571" fill="#ffffff"/><circle cx="347.38" cy="347.38" r="8.08" fill="#80aea1"/><circle cx="363.53999999999996" cy="347.38" r="8.08" fill="#25735d"/><circle cx="347.38" cy="363.53999999999996" r="8.08" fill="#f7faf9"/><circle cx="363.53999999999996" cy="363.53999999999996" r="8.08" fill="#d7e5e1"/><rect x="403.92857142857133" y="339.29999999999995" width="32.31428571428571" height="32.31428571428571" fill="#ffffff"/><circle cx="412.01" cy="347.38" r="8.08" fill="#e0ebe8"/><circle cx="428.16999999999996" cy="347.38" r="8.08" fill="#0b624a"/><circle cx="412.01" cy="363.53999999999996" r="8.08" fill="#166952"/><circle cx="428.16999999999996" cy="363.53999999999996" r="8.08" fill="#79a99c"/><circle cx="484.71500000000003" cy="355.45500000000004" r="16.155" fill="#a9c7bf"/><rect x="533.1857142857142" y="339.29999999999995" width="32.31428571428571" height="32.31428571428571" fill="#ffffff"/><circle cx="541.2700000000001" cy="347.38" r="8.08" fill="#498a78"/><circle cx="557.4200000000001" cy="347.38" r="8.08" fill="#73a597"/><circle cx="541.2700000000001" cy="363.53999999999996" r="8.08" fill="#5a9585"/><circle cx="557.4200000000001" cy="363.53999999999996" r="8.08" fill="#699f90"/><rect x="597.8142857142856" y="339.29999999999995" width="32.31428571428571" height="32.31428571428571" fill="#ffffff"/><circle cx="605.89" cy="347.38" r="8.08" fill="#caddd8"/><circle cx="622.0500000000001" cy="347.38" r="8.08" fill="#dae7e3"/><circle cx="605.89" cy="363.53999999999996" r="8.08" fill="#d7e5e1"/><circle cx="622.0500000000001" cy="363.53999999999996" r="8.08" fill="#dae7e3"/><rect x="662.4428571428571" y="339.29999999999995" width="32.31428571428571" height="32.31428571428571" fill="#ffffff"/><circle cx="670.5200000000001" cy="347.38" r="8.08" fill="#076047"/><circle cx="686.6800000000001" cy="347.38" r="8.08" fill="#c4d9d3"/><circle cx="670.5200000000001" cy="363.53999999999996" r="8.08" fill="#4b8b79"/><circle cx="686.6800000000001" cy="363.53999999999996" r="8.08" fill="#c8dcd6"/><circle cx="743.225" cy="355.45500000000004" r="16.155" fill="#bad3cc"/><circle cx="807.855" cy="355.45500000000004" r="16.155" fill="#428572"/><circle cx="32.315" cy="420.08500000000004" r="16.155" fill="#4a8b79"/><circle cx="96.94500000000001" cy="420.08500000000004" r="16.155" fill="#4e8d7b"/><circle cx="161.565" cy="420.08500000000004" r="16.155" fill="#0f654d"/><circle cx="226.195" cy="420.08500000000004" r="16.155" fill="#367e6a"/><rect x="274.6714285714285" y="403.92857142857133" width="32.31428571428571" height="32.31428571428571" fill="#ffffff"/><circle cx="282.75" cy="412.01" r="8.08" fill="#adcbc2"/><circle cx="298.90999999999997" cy="412.01" r="8.08" fill="#4c8c7a"/><circle cx="282.75" cy="428.16999999999996" r="8.08" fill="#5d9787"/><circle cx="298.90999999999997" cy="428.16999999999996" r="8.08" fill="#619a8a"/><rect x="339.29999999999995" y="403.92857142857133" width="32.31428571428571" height="32.31428571428571" fill="#ffffff"/><circle cx="347.38" cy="412.01" r="8.08" fill="#9abeb4"/><circle cx="363.53999999999996" cy="412.01" r="8.08" fill="#a1c3b9"/><circle cx="347.38" cy="428.16999999999996" r="8.08" fill="#77a79a"/><circle cx="363.53999999999996" cy="428.16999999999996" r="8.08" fill="#e7f0ed"/><rect x="403.92857142857133" y="403.92857142857133" width="32.31428571428571" height="32.31428571428571" fill="#ffffff"/><circle cx="412.01" cy="412.01" r="8.08" fill="#2d7863"/><circle cx="428.16999999999996" cy="412.01" r="8.08" fill="#b4cfc7"/><circle cx="412.01" cy="428.16999999999996" r="8.08" fill="#98bdb2"/><circle cx="428.16999999999996" cy="428.16999999999996" r="8.08" fill="#ecf3f1"/><rect x="468.55714285714276" y="403.92857142857133" width="32.31428571428571" height="32.31428571428571" fill="#ffffff"/><circle cx="476.64" cy="412.01" r="8.08" fill="#73a597"/><circle cx="492.78999999999996" cy="412.01" r="8.08" fill="#cddfda"/><circle cx="476.64" cy="428.16999999999996" r="8.08" fill="#fafcfb"/><circle cx="492.78999999999996" cy="428.16999999999996" r="8.08" fill="#599484"/><rect x="533.1857142857142" y="403.92857142857133" width="32.31428571428571" height="32.31428571428571" fill="#ffffff"/><circle cx="541.2700000000001" cy="412.01" r="8.08" fill="#11664e"/><circle cx="557.4200000000001" cy="412.01" r="8.08" fill="#89b3a7"/><circle cx="541.2700000000001" cy="428.16999999999996" r="8.08" fill="#e8f0ee"/><circle cx="557.4200000000001" cy="428.16999999999996" r="8.08" fill="#317a66"/><rect x="597.8142857142856" y="403.92857142857133" width="32.31428571428571" height="32.31428571428571" fill="#ffffff"/><circle cx="605.89" cy="412.01" r="8.08" fill="#c7dbd6"/><circle cx="622.0500000000001" cy="412.01" r="8.08" fill="#eaf1ef"/><circle cx="605.89" cy="428.16999999999996" r="8.08" fill="#97bcb2"/><circle cx="622.0500000000001" cy="428.16999999999996" r="8.08" fill="#79a99b"/><circle cx="678.595" cy="420.08500000000004" r="16.155" fill="#c8dcd6"/><circle cx="743.225" cy="420.08500000000004" r="16.155" fill="#24725c"/><circle cx="807.855" cy="420.08500000000004" r="16.155" fill="#cbded8"/><circle cx="32.315" cy="484.71500000000003" r="16.155" fill="#b7d1ca"/><circle cx="96.94500000000001" cy="484.71500000000003" r="16.155" fill="#e4edeb"/><circle cx="161.565" cy="484.71500000000003" r="16.155" fill="#438674"/><rect x="210.0428571428571" y="468.55714285714276" width="32.31428571428571" height="32.31428571428571" fill="#ffffff"/><circle cx="218.12" cy="476.64" r="8.08" fill="#39806c"/><circle cx="234.28" cy="476.64" r="8.08" fill="#297560"/><circle cx="218.12" cy="492.78999999999996" r="8.08" fill="#9cc0b6"/><circle cx="234.28" cy="492.78999999999996" r="8.08" fill="#9cc0b6"/><rect x="274.6714285714285" y="468.55714285714276" width="32.31428571428571" height="32.31428571428571" fill="#ffffff"/><circle cx="282.75" cy="476.64" r="8.08" fill="#27745f"/><circle cx="298.90999999999997" cy="476.64" r="8.08" fill="#f1f6f5"/><circle cx="282.75" cy="492.78999999999996" r="8.08" fill="#cee0db"/><circle cx="298.90999999999997" cy="492.78999999999996" r="8.08" fill="#b2cec6"/><rect x="339.29999999999995" y="468.55714285714276" width="32.31428571428571" height="32.31428571428571" fill="#ffffff"/><circle cx="347.38" cy="476.64" r="8.08" fill="#27745f"/><circle cx="363.53999999999996" cy="476.64" r="8.08" fill="#26745e"/><circle cx="347.38" cy="492.78999999999996" r="8.08" fill="#2c7762"/><circle cx="363.53999999999996" cy="492.78999999999996" r="8.08" fill="#629a8a"/><circle cx="420.08500000000004" cy="484.71500000000003" r="16.155" fill="#39806c"/><rect x="468.55714285714276" y="468.55714285714276" width="32.31428571428571" height="32.31428571428571" fill="#ffffff"/><circle cx="476.64" cy="476.64" r="8.08" fill="#4d8d7b"/><circle cx="492.78999999999996" cy="476.64" r="8.08" fill="#f7faf9"/><circle cx="476.64" cy="492.78999999999996" r="8.08" fill="#b4cfc7"/><circle cx="492.78999999999996" cy="492.78999999999996" r="8.08" fill="#b5d0c8"/><circle cx="549.345" cy="484.71500000000003" r="16.155" fill="#91b8ad"/><rect x="597.8142857142856" y="468.55714285714276" width="32.31428571428571" height="32.31428571428571" fill="#ffffff"/><circle cx="605.89" cy="476.64" r="8.08" fill="#80aea1"/><circle cx="622.0500000000001" cy="476.64" r="8.08" fill="#c1d7d1"/><circle cx="605.89" cy="492.78999999999996" r="8.08" fill="#cddfda"/><circle cx="622.0500000000001" cy="492.78999999999996" r="8.08" fill="#95bbb0"/><rect x="662.4428571428571" y="468.55714285714276" width="32.31428571428571" height="32.31428571428571" fill="#ffffff"/><circle cx="670.5200000000001" cy="476.64" r="8.08" fill="#3e8370"/><circle cx="686.6800000000001" cy="476.64" r="8.08" fill="#649b8c"/><circle cx="670.5200000000001" cy="492.78999999999996" r="8.08" fill="#77a79a"/><circle cx="686.6800000000001" cy="492.78999999999996" r="8.08" fill="#74a698"/><circle cx="743.225" cy="484.71500000000003" r="16.155" fill="#80aea1"/><rect x="791.6999999999998" y="468.55714285714276" width="32.31428571428571" height="32.31428571428571" fill="#ffffff"/><circle cx="799.7800000000001" cy="476.64" r="8.08" fill="#468875"/><circle cx="815.94" cy="476.64" r="8.08" fill="#0b624a"/><circle cx="799.7800000000001" cy="492.78999999999996" r="8.08" fill="#5f9888"/><circle cx="815.94" cy="492.78999999999996" r="8.08" fill="#a2c3ba"/></g></svg>